<svg id="Layer_1" data-name="Layer 1" xmlns="http://www.w3.org/2000/svg" viewBox="0 0 466.97 208.34"><defs><style>.cls-1{fill:#56beed;}.cls-2{fill:#fad10a;}.cls-3{fill:#fff;}.cls-4{fill:#e89a23;}.cls-5{fill:#e79b24;}</style></defs><path class="cls-1" d="M202,70.18a14.57,14.57,0,0,1,4,5,14.43,14.43,0,0,1-.68,14A14.59,14.59,0,0,1,199,94.46a22.33,22.33,0,0,1-9.72,2h-20.8V40.66h20a22.64,22.64,0,0,1,9.68,1.88,13.73,13.73,0,0,1,6,5.08,13.28,13.28,0,0,1,2,7.2,12.41,12.41,0,0,1-2.68,8.2,14.93,14.93,0,0,1-7.08,4.68A11.8,11.8,0,0,1,202,70.18Zm-26.2-5.44H188q5.13,0,7.92-2.4a8.26,8.26,0,0,0,2.8-6.64,8.28,8.28,0,0,0-2.8-6.64c-1.86-1.6-4.56-2.4-8.08-2.4H175.75Zm21.36,23.12a8.78,8.78,0,0,0,3-7.12,9,9,0,0,0-3.2-7.32,12.92,12.92,0,0,0-8.56-2.68H175.75V90.42h12.88Q194.08,90.42,197.11,87.86Z"/><path class="cls-1" d="M217.75,44a5,5,0,0,1,3.52-8.48,4.56,4.56,0,0,1,3.4,1.44,5.13,5.13,0,0,1,0,7,4.56,4.56,0,0,1-3.4,1.44A4.8,4.8,0,0,1,217.75,44Zm7,8.56V96.42h-7.28V52.58Z"/><path class="cls-1" d="M251,54.34a19.44,19.44,0,0,1,9.84-2.48,20.52,20.52,0,0,1,10.64,2.8A19.84,19.84,0,0,1,279,62.54a24.67,24.67,0,0,1,2.72,11.8A25.18,25.18,0,0,1,279,86.18a19.94,19.94,0,0,1-18.08,11,19.43,19.43,0,0,1-10-2.48,16.87,16.87,0,0,1-6.44-6.32v8.08h-7.28V37.22h7.28V60.74A17.26,17.26,0,0,1,251,54.34Zm21.2,11.36a13.82,13.82,0,0,0-5.4-5.6,15,15,0,0,0-7.48-1.92,14.63,14.63,0,0,0-7.4,2,14.33,14.33,0,0,0-5.44,5.68,17.61,17.61,0,0,0-2,8.6,17.76,17.76,0,0,0,2,8.68A14.26,14.26,0,0,0,252,88.78a14.53,14.53,0,0,0,7.4,2,14.69,14.69,0,0,0,7.48-2,14,14,0,0,0,5.4-5.68,18.27,18.27,0,0,0,2-8.76A17.87,17.87,0,0,0,272.23,65.7Z"/><path class="cls-1" d="M298.55,37.22v59.2h-7.28V37.22Z"/><path class="cls-1" d="M311.19,44a5,5,0,0,1,3.52-8.48,4.56,4.56,0,0,1,3.4,1.44,5.13,5.13,0,0,1,0,7,4.56,4.56,0,0,1-3.4,1.44A4.78,4.78,0,0,1,311.19,44Zm7,8.56V96.42H311V52.58Z"/><path class="cls-1" d="M330.63,62.54a19.59,19.59,0,0,1,7.56-7.88,21.8,21.8,0,0,1,11.08-2.8c5.38,0,9.83,1.31,13.32,3.92a18.54,18.54,0,0,1,6.92,10.88h-7.84a11.31,11.31,0,0,0-4.36-6.32,13.5,13.5,0,0,0-8-2.32,12.91,12.91,0,0,0-10.08,4.28q-3.84,4.29-3.84,12.12t3.84,12.24A12.84,12.84,0,0,0,349.27,91a13.58,13.58,0,0,0,8-2.24,11.34,11.34,0,0,0,4.4-6.4h7.84a19.31,19.31,0,0,1-7,10.76q-5.28,4.05-13.2,4a21.7,21.7,0,0,1-11.08-2.8,19.38,19.38,0,0,1-7.56-7.92,25.12,25.12,0,0,1-2.72-12A24.74,24.74,0,0,1,330.63,62.54Z"/><path class="cls-1" d="M379.19,62.54a19.8,19.8,0,0,1,7.48-7.88,20.58,20.58,0,0,1,10.6-2.8,19.49,19.49,0,0,1,10,2.48,16.62,16.62,0,0,1,6.32,6.24v-8H421V96.42h-7.36V88.26a17.18,17.18,0,0,1-6.44,6.36,19.3,19.3,0,0,1-10,2.52,19.84,19.84,0,0,1-10.56-2.88,20.13,20.13,0,0,1-7.44-8.08,25.18,25.18,0,0,1-2.72-11.84A24.67,24.67,0,0,1,379.19,62.54Zm32.4,3.24a14.19,14.19,0,0,0-5.4-5.64,15.31,15.31,0,0,0-14.92,0,13.93,13.93,0,0,0-5.36,5.6,17.87,17.87,0,0,0-2,8.64,18.27,18.27,0,0,0,2,8.76,14.08,14.08,0,0,0,5.36,5.68,14.46,14.46,0,0,0,7.44,2,14.69,14.69,0,0,0,7.48-2,14,14,0,0,0,5.4-5.68,18.09,18.09,0,0,0,2-8.68A17.9,17.9,0,0,0,411.59,65.78Z"/><path class="cls-1" d="M440.55,37.22v59.2h-7.28V37.22Z"/><path class="cls-2" d="M229.62,119.2l-14.27,49.22h-7.2L196.71,128.8l-11.87,39.62-7.13.07L163.94,119.2h6.85l10.73,41.74,11.87-41.74h7.2l11.3,41.59L222.7,119.2Z"/><path class="cls-2" d="M236.89,122.16a4.38,4.38,0,0,1,3.11-7.48,4,4,0,0,1,3,1.27,4.51,4.51,0,0,1,0,6.21,4,4,0,0,1-3,1.28A4.23,4.23,0,0,1,236.89,122.16Zm6.22,7.56v38.7h-6.43v-38.7Z"/><path class="cls-2" d="M259.77,167.54a13.53,13.53,0,0,1-5.58-4.24,11.28,11.28,0,0,1-2.26-6.25h6.64a6.53,6.53,0,0,0,2.72,4.73,10.29,10.29,0,0,0,6.39,1.84,9.24,9.24,0,0,0,5.79-1.63,5,5,0,0,0,2.12-4.09,4,4,0,0,0-2.26-3.78,32.52,32.52,0,0,0-7-2.44,50.61,50.61,0,0,1-7-2.29,12.56,12.56,0,0,1-4.66-3.46,9.81,9.81,0,0,1-.17-11.48,11.91,11.91,0,0,1,5-3.92,18.11,18.11,0,0,1,7.41-1.45q6.44,0,10.39,3.25a11.75,11.75,0,0,1,4.23,8.9H275.1a6.64,6.64,0,0,0-2.44-4.87,9.1,9.1,0,0,0-6-1.84,9.23,9.23,0,0,0-5.51,1.49,4.57,4.57,0,0,0-2,3.88,4.26,4.26,0,0,0,1.23,3.14,8.93,8.93,0,0,0,3.11,2c1.25.49,3,1.05,5.19,1.66a55.14,55.14,0,0,1,6.78,2.22,11.81,11.81,0,0,1,4.48,3.29,8.78,8.78,0,0,1,1.95,5.72,9.78,9.78,0,0,1-1.77,5.72,11.81,11.81,0,0,1-5,4,17.86,17.86,0,0,1-7.38,1.45A20.1,20.1,0,0,1,259.77,167.54Z"/><path class="cls-2" d="M290.92,138.51a17.35,17.35,0,0,1,6.6-6.95,18.22,18.22,0,0,1,9.43-2.48,17.49,17.49,0,0,1,8.4,2.09,15,15,0,0,1,5.93,5.47V116.16h6.5v52.26h-6.5v-7.27a15,15,0,0,1-5.65,5.68,16.72,16.72,0,0,1-8.75,2.23,17.63,17.63,0,0,1-16-9.68,22.09,22.09,0,0,1-2.41-10.45A21.64,21.64,0,0,1,290.92,138.51Zm28.6,2.86a12.58,12.58,0,0,0-4.77-5,13.5,13.5,0,0,0-13.17,0,12.26,12.26,0,0,0-4.73,4.94,15.72,15.72,0,0,0-1.77,7.63,16,16,0,0,0,1.77,7.73,12.47,12.47,0,0,0,4.73,5,12.85,12.85,0,0,0,6.57,1.73,13,13,0,0,0,6.6-1.73,12.5,12.5,0,0,0,4.77-5,16,16,0,0,0,1.76-7.66A15.83,15.83,0,0,0,319.52,141.37Z"/><path class="cls-2" d="M345.68,166.59a17.6,17.6,0,0,1-6.92-7A21.58,21.58,0,0,1,336.25,149a20.94,20.94,0,0,1,2.58-10.49,17.83,17.83,0,0,1,7-7,21.55,21.55,0,0,1,19.92,0,17.86,17.86,0,0,1,7,7A20.84,20.84,0,0,1,375.38,149a20.6,20.6,0,0,1-2.65,10.56,18.28,18.28,0,0,1-7.17,7,20.6,20.6,0,0,1-10,2.47A19.91,19.91,0,0,1,345.68,166.59ZM362,161.78a12.29,12.29,0,0,0,4.91-4.87,15.59,15.59,0,0,0,1.87-7.91,15.9,15.9,0,0,0-1.83-7.91,12.11,12.11,0,0,0-4.81-4.84,13.84,13.84,0,0,0-12.88,0,11.62,11.62,0,0,0-4.7,4.84,16.34,16.34,0,0,0-1.77,7.91,16.82,16.82,0,0,0,1.73,8,11.54,11.54,0,0,0,4.63,4.84,13,13,0,0,0,6.36,1.59A13.47,13.47,0,0,0,362,161.78Z"/><path class="cls-2" d="M438.45,130.89A13.47,13.47,0,0,1,444,136.5a18.81,18.81,0,0,1,2,9.11v22.81h-6.35V146.53c0-3.86-1-6.82-2.86-8.86a10.07,10.07,0,0,0-7.74-3.08,10.32,10.32,0,0,0-8,3.22q-3,3.21-3,9.28v21.33h-6.36V146.53c0-3.86-.95-6.82-2.86-8.86a10,10,0,0,0-7.73-3.08,10.29,10.29,0,0,0-8,3.22q-3,3.21-3,9.28v21.33h-6.43v-38.7h6.43v5.58a12.71,12.71,0,0,1,5.12-4.66,15.55,15.55,0,0,1,7.1-1.63,16.77,16.77,0,0,1,8.62,2.19,13.38,13.38,0,0,1,5.57,6.43,12.79,12.79,0,0,1,5.37-6.36A15.88,15.88,0,0,1,430.4,129,16.93,16.93,0,0,1,438.45,130.89Z"/><circle class="cls-3" cx="48.6" cy="79.42" r="20.11"/><circle class="cls-3" cx="114" cy="79.71" r="20.11"/><path class="cls-2" d="M75.17,67.71C70.51,57.56,61.19,53.14,56.59,51A90.76,90.76,0,0,0,35,44.08,26.35,26.35,0,0,1,27.68,42a26.62,26.62,0,0,1-9.4-7.35V84.23a29.51,29.51,0,0,0,3,8c4.58,8.31,15.07,17.58,28.91,16.75,10.62-.65,21-7.11,25.46-17.44C80.64,80.08,76,69.44,75.17,67.71ZM58.43,94.78A18.71,18.71,0,0,1,35,92.49C29.34,86.7,28.67,78,31.81,71.38A18.68,18.68,0,0,1,47.64,60.6c9-.33,17.19,6.47,18.82,15.37A18.73,18.73,0,0,1,58.43,94.78Z"/><path class="cls-4" d="M57.74,76.2s-4.59,4.36-8,2.17c-6.33-4-.69-9.74-.69-9.74-6.19.42-11,5-11.47,10.32a10.73,10.73,0,0,0,6.19,10.79,10.75,10.75,0,0,0,12.85-4.13A11.55,11.55,0,0,0,57.74,76.2Z"/><path class="cls-2" d="M86.65,91.57c4.5,10.33,14.84,16.79,25.46,17.44,13.84.83,24.34-8.44,28.91-16.75a29.51,29.51,0,0,0,3-8V34.67a25.26,25.26,0,0,1-16.74,9.41A90.91,90.91,0,0,0,105.69,51c-4.6,2.18-13.92,6.6-18.58,16.75C86.31,69.44,81.64,80.08,86.65,91.57ZM95.83,76c1.62-8.9,9.85-15.7,18.81-15.37a18.68,18.68,0,0,1,15.83,10.78c3.14,6.62,2.47,15.32-3.21,21.11A18.62,18.62,0,0,1,95.83,76Z"/><path class="cls-5" d="M104.54,76.2s4.59,4.36,8,2.17c6.33-4,.69-9.74.69-9.74,6.19.42,11,5,11.47,10.32a10.31,10.31,0,0,1-19,6.66A11.55,11.55,0,0,1,104.54,76.2Z"/><path class="cls-2" d="M89.86,111c-4.78-1.92-8.09-15.53-8.67-18.09v-.42s0,.07,0,.21c0-.14,0-.21,0-.21v.42c-.58,2.56-3.89,16.17-8.67,18.09,0,0,7.3,1.82,8.67,7.67v.43a1.42,1.42,0,0,0,0-.22c0,.08,0,.15,0,.22v-.43C82.56,112.82,89.86,111,89.86,111Z"/><path class="cls-2" d="M144,18.84c-9.22,9.6-16.88,10.41-20.41,10.33A41.83,41.83,0,0,1,116.7,28c-9.44-2-13.1-4.07-19-5.5a48,48,0,0,0-8.43-1.26,73,73,0,0,0-16.19,0,47.85,47.85,0,0,0-8.42,1.26C58.68,24,55,26,45.58,28a41.93,41.93,0,0,1-6.88,1.15c-3.54.08-11.2-.73-20.42-10.33a14.47,14.47,0,0,0,1,6.6C22.38,33,31.84,35.59,40,37.74c2,.51,3.83,1,5.54,1.52C76.1,48.62,80.49,63,81.09,66.17v.62s0-.12,0-.35c0,.23,0,.35,0,.35v-.62c.6-3.14,5-17.55,35.51-26.91,1.71-.52,3.59-1,5.54-1.52,8.2-2.15,17.66-4.74,20.78-12.3A14.47,14.47,0,0,0,144,18.84Z"/><path class="cls-1" d="M59.11,114.05c-5.39.21-6.15,2.39-11.93,2.76a27.45,27.45,0,0,1-11.7-2.07,37.67,37.67,0,0,1-17.2-13.3V165.8a37.6,37.6,0,0,0,17.2,13.3,27.3,27.3,0,0,0,11.7,2.07c5.78-.37,6.54-2.54,11.93-2.75,1.58-.07,8.77-.35,14,4.81A17.07,17.07,0,0,1,77.7,192V150.19H63.82V143.3H77.7V127.59a17.07,17.07,0,0,0-4.59-8.72C67.88,113.71,60.69,114,59.11,114.05Z"/><path class="cls-1" d="M126.8,114.74a27.45,27.45,0,0,1-11.7,2.07c-5.78-.37-6.54-2.55-11.93-2.76-1.58-.06-8.76-.34-14,4.82a17.07,17.07,0,0,0-4.59,8.72V143.3h14v6.89h-14V192a17.07,17.07,0,0,1,4.59-8.72c5.24-5.16,12.42-4.88,14-4.81,5.39.21,6.15,2.38,11.93,2.75a27.3,27.3,0,0,0,11.7-2.07A37.6,37.6,0,0,0,144,165.8V101.44A37.67,37.67,0,0,1,126.8,114.74Z"/></svg>