<svg xmlns="http://www.w3.org/2000/svg" width="2400" height="2400" viewBox="0 0 2400 2400" version="1.1">
	<path d="M 941.320 625.831 C 882.421 727.534, 793.686 881.034, 588.018 1237 C 127.485 2034.082, 156.748 1983.086, 137.499 2022.107 C 115.447 2066.809, 107.296 2091.971, 108.208 2112.534 C 108.607 2121.550, 108.993 2123.207, 112.006 2128.860 C 120.491 2144.779, 138.055 2151.947, 179 2156.201 C 197.493 2158.123, 2149.659 2158.121, 2177 2156.200 C 2237.400 2151.955, 2266.731 2145.038, 2281.807 2131.484 C 2300.917 2114.302, 2295.834 2084.760, 2263.466 2024.879 C 2252.911 2005.353, 2254.266 2007.713, 2129.211 1791 C 2010.276 1584.892, 2018.933 1598.986, 1993.150 1569.500 C 1932.784 1500.466, 1865.923 1441.141, 1797 1395.458 C 1767.451 1375.873, 1747.316 1364.286, 1714.500 1347.980 C 1647.543 1314.711, 1588.821 1295.570, 1514.695 1282.853 C 1504.688 1281.136, 1495.150 1279.755, 1493.500 1279.784 C 1491.123 1279.826, 1490.906 1279.681, 1492.451 1279.085 C 1494.101 1278.449, 1493.253 1277.556, 1486.951 1273.298 C 1480.591 1269, 1479.248 1267.576, 1477.777 1263.574 L 1476.053 1258.885 1480.277 1259.433 C 1569.656 1271.011, 1638.745 1291.820, 1715.655 1330.325 C 1802.868 1373.988, 1890.549 1440.922, 1965.939 1521.387 C 1975.530 1531.624, 1983.570 1540, 1983.804 1540 C 1984.038 1540, 1983.577 1538.987, 1982.779 1537.750 C 1981.981 1536.513, 1910.504 1412.875, 1823.942 1263 C 1651.074 963.696, 1663.093 983.484, 1630.483 944.500 C 1555.916 855.358, 1474.321 796.881, 1385 768.568 C 1357.954 759.995, 1327.419 754.277, 1296 751.903 C 1278.999 750.618, 1246.737 751.164, 1230.374 753.013 L 1220.248 754.157 1164.326 715.556 L 1108.404 676.954 1097.528 658.954 L 1086.651 640.954 1032.576 603.666 C 1002.834 583.157, 978.040 566.104, 977.477 565.770 C 976.901 565.428, 961.135 591.615, 941.320 625.831 M 1433.750 1274.662 C 1434.438 1274.940, 1435.563 1274.940, 1436.250 1274.662 C 1436.938 1274.385, 1436.375 1274.158, 1435 1274.158 C 1433.625 1274.158, 1433.063 1274.385, 1433.750 1274.662 M 1463.813 1276.683 C 1464.534 1276.972, 1465.397 1276.936, 1465.729 1276.604 C 1466.061 1276.272, 1465.471 1276.036, 1464.417 1276.079 C 1463.252 1276.127, 1463.015 1276.364, 1463.813 1276.683 M 1474.813 1277.683 C 1475.534 1277.972, 1476.397 1277.936, 1476.729 1277.604 C 1477.061 1277.272, 1476.471 1277.036, 1475.417 1277.079 C 1474.252 1277.127, 1474.015 1277.364, 1474.813 1277.683 M 1483.813 1278.683 C 1484.534 1278.972, 1485.397 1278.936, 1485.729 1278.604 C 1486.061 1278.272, 1485.471 1278.036, 1484.417 1278.079 C 1483.252 1278.127, 1483.015 1278.364, 1483.813 1278.683" stroke="none" fill="black" fill-rule="evenodd"/>
</svg>